<?xml version="1.0" standalone="no"?>
<!DOCTYPE svg PUBLIC "-//W3C//DTD SVG 20010904//EN"
 "http://www.w3.org/TR/2001/REC-SVG-20010904/DTD/svg10.dtd">
<svg version="1.0" xmlns="http://www.w3.org/2000/svg"
 width="1024.000000pt" height="1024.000000pt" viewBox="0 0 1024.000000 1024.000000"
 preserveAspectRatio="xMidYMid meet">

<g transform="translate(0.000000,1024.000000) scale(0.100000,-0.100000)"
fill="#000000" stroke="none">
<path d="M5030 8676 c-227 -133 -770 -450 -1005 -586 -148 -86 -369 -214 -490
-285 -238 -139 -562 -327 -610 -355 -16 -9 -151 -88 -300 -175 -262 -154 -304
-178 -447 -261 l-68 -39 3 -1875 2 -1875 220 -126 c121 -69 387 -222 590 -339
204 -117 444 -255 535 -307 91 -52 170 -98 175 -103 6 -4 26 -17 45 -28 41
-23 572 -331 880 -510 447 -260 540 -312 556 -312 17 0 74 30 204 108 41 25
170 100 285 167 188 109 364 213 480 282 22 13 64 36 93 51 48 24 53 30 48 53
-5 26 -158 391 -175 417 -6 11 -102 -41 -407 -219 -220 -128 -427 -250 -462
-271 l-63 -38 -67 38 c-37 22 -260 152 -497 289 -657 382 -1224 711 -1385 803
-355 203 -556 324 -572 342 -17 19 -18 63 -18 627 l0 608 130 77 130 77 0 213
0 214 -130 77 -130 77 2 597 3 596 220 131 c121 72 342 202 490 289 149 87
331 194 405 238 74 44 164 96 200 117 36 21 189 110 340 198 274 159 748 433
827 478 l41 24 94 -53 c51 -30 158 -92 238 -138 80 -47 253 -148 385 -223 132
-76 308 -178 390 -226 83 -48 200 -116 260 -150 61 -35 207 -119 325 -188 118
-68 316 -183 440 -255 124 -71 267 -154 318 -184 l92 -55 -2 -601 -3 -601
-127 -76 -127 -75 -1 -212 0 -212 28 -19 c15 -10 73 -45 130 -76 l102 -58 0
-619 0 -618 -32 -17 c-36 -18 -52 -28 -498 -291 -168 -99 -386 -228 -485 -286
l-180 -105 -3 -276 c-1 -152 0 -276 3 -276 7 0 60 30 143 79 29 17 55 31 58
31 2 0 23 11 45 26 22 14 55 33 72 43 33 19 407 236 557 324 47 27 105 61 130
75 25 13 50 28 55 32 6 4 27 17 48 29 88 50 157 90 247 143 41 24 111 64 155
88 44 24 97 52 117 64 l38 21 0 1880 0 1880 -163 91 c-89 51 -288 165 -442
254 -316 184 -271 158 -740 429 -323 187 -795 462 -1406 818 -136 78 -250 143
-256 143 -5 0 -42 -20 -83 -44z"/>
<path d="M4940 7716 l-165 -95 -5 -118 -5 -118 -210 -124 c-187 -110 -409
-241 -927 -547 l-156 -92 -84 53 -83 54 -30 -20 c-16 -10 -96 -59 -177 -107
l-148 -87 0 -207 0 -208 75 -42 74 -43 1 -72 0 -73 230 0 229 0 3 127 3 126
135 82 c74 45 259 155 410 245 151 89 295 175 320 190 25 15 124 74 220 130
96 57 239 141 317 188 l142 84 73 -39 c40 -22 98 -54 130 -72 l56 -32 10 33
c6 18 37 120 68 227 l58 194 -22 15 c-21 13 -22 22 -22 131 l0 116 -162 95
c-89 52 -169 96 -178 98 -8 1 -89 -40 -180 -92z"/>
<path d="M5922 6918 c-57 -183 -92 -301 -89 -304 1 0 36 -20 77 -44 41 -24
208 -120 370 -215 162 -94 316 -183 341 -198 l46 -26 6 -98 c4 -54 7 -191 7
-306 l0 -207 228 2 227 3 3 245 2 245 68 41 67 40 0 209 0 208 -170 104 c-93
56 -173 103 -177 103 -3 0 -39 -20 -79 -45 -40 -25 -78 -45 -84 -45 -9 0 -133
71 -608 349 -86 50 -163 94 -170 97 -9 3 -28 -43 -65 -158z"/>
<path d="M4915 6486 c-104 -62 -307 -182 -450 -266 -143 -84 -313 -185 -377
-223 l-118 -71 0 -816 0 -815 38 -21 c44 -24 652 -377 732 -424 270 -160 385
-222 400 -213 8 6 254 149 545 318 292 169 540 314 553 322 22 13 22 14 22
279 0 242 -1 266 -16 260 -13 -5 -810 -462 -1066 -612 l-58 -33 -307 183
c-170 100 -327 195 -350 209 l-43 27 0 523 0 523 28 21 c15 11 172 106 350
211 l324 192 116 -69 c64 -38 212 -122 327 -188 116 -66 317 -181 448 -256
130 -75 239 -137 242 -137 3 0 5 118 5 263 l0 263 -187 111 c-563 333 -943
553 -955 553 -7 -1 -98 -52 -203 -114z"/>
<path d="M3100 5360 l0 -230 230 0 230 0 0 230 0 230 -230 0 -230 0 0 -230z"/>
<path d="M6900 5082 l-225 -2 3 -483 c2 -381 0 -486 -10 -499 -7 -9 -179 -113
-383 -231 -203 -118 -547 -318 -763 -445 -217 -128 -398 -232 -402 -232 -11 0
-74 37 -318 183 -101 60 -187 105 -192 101 -4 -5 -42 -110 -84 -233 -61 -175
-74 -226 -64 -232 7 -5 79 -46 160 -91 l147 -83 1 -111 0 -110 153 -87 c85
-48 162 -94 173 -101 16 -13 23 -12 49 3 17 10 94 55 173 101 l142 82 0 112
c0 95 3 113 18 122 9 6 60 36 112 66 52 31 169 99 260 153 146 86 674 394 849
495 l64 37 82 -47 82 -47 163 93 c89 51 168 99 176 105 11 9 14 54 14 220 l0
208 -70 43 -70 43 0 432 c0 237 -3 433 -7 435 -5 2 -109 2 -233 0z"/>
<path d="M3098 4528 l-3 -311 -72 -45 -73 -45 0 -208 c0 -188 2 -210 18 -219
9 -6 89 -53 176 -105 l160 -95 82 49 82 49 34 -20 c18 -12 121 -71 228 -133
107 -62 261 -151 342 -198 81 -47 150 -82 153 -78 2 5 32 84 65 177 34 93 67
186 75 207 8 20 15 44 15 51 0 12 -158 109 -535 327 -55 32 -142 83 -192 114
l-93 56 0 369 0 370 -230 0 -230 0 -2 -312z"/>
</g>
</svg>
